<?xml version="1.0" encoding="utf-8"?>
<!-- Generator: Adobe Illustrator 19.0.0, SVG Export Plug-In . SVG Version: 6.00 Build 0)  -->
<svg version="1.1" id="Layer_1" xmlns="http://www.w3.org/2000/svg" xmlns:xlink="http://www.w3.org/1999/xlink" x="0px" y="0px"
	 viewBox="0 67.5 300 66.5" style="enable-background:new 0 67.5 300 66.5;" xml:space="preserve">
<style type="text/css">
	.st0{fill:#2357AB;}
	.st1{fill:#324A8A;}
	.st2{clip-path:url(#SVGID_2_);fill:url(#XMLID_2_);}
	.st3{clip-path:url(#SVGID_4_);}
	.st4{fill:#62CEC0;}
	.st5{opacity:0.57;fill:url(#XMLID_3_);enable-background:new    ;}
	.st6{fill:#89ECD2;}
	.st7{opacity:0.57;fill:url(#XMLID_4_);enable-background:new    ;}
	.st8{fill:#E9FEA9;}
	.st9{opacity:0.57;fill:url(#XMLID_5_);enable-background:new    ;}
</style>
<g id="XMLID_27_">
	<path id="XMLID_28_" class="st0" d="M95.3,83.8v5.8h-3L92,86.5h-4.6v15.4l2.9,0.5v2.3H81v-2.3l2.9-0.5V86.5h-4.4l-0.3,3h-3v-5.8
		h19.1V83.8z"/>
	<path id="XMLID_43_" class="st0" d="M96.5,86.1v-2.3h9.4v2.3l-2.9,0.5v6.6h10.1v-6.6l-2.9-0.5v-2.3h2.9h3.5h2.9v2.3l-2.9,0.5v15.3
		l2.9,0.5v2.3h-9.4v-2.3l2.9-0.5v-6h-10v6l2.9,0.5v2.3h-9.4v-2.3l2.9-0.5V86.6L96.5,86.1z"/>
	<path id="XMLID_45_" class="st0" d="M131.9,83.8c2.5,0,4.3,0.5,5.7,1.6c1.3,1.1,2,2.6,2,4.5c0,1.1-0.3,2-0.9,2.7
		c-0.6,0.8-1.5,1.4-2.6,1.8c1.2,0.4,2.1,1,2.7,1.8c0.6,0.8,0.8,1.9,0.8,3.2v2.1v0.5l1.8,0.3v2.3h-5c-0.1-0.3-0.2-0.7-0.3-1.3
		c0-0.6-0.1-1.2-0.1-1.8v-2c0-1.1-0.3-1.9-0.9-2.5c-0.6-0.6-1.5-0.9-2.7-0.9h-5.3v5.8l2.9,0.5v2.3h-9.4v-2.3l2.9-0.5V86.6l-2.9-0.5
		v-2.3h2.9H131.9z M127.2,93.3h4.7c1.4,0,2.5-0.3,3.2-0.8c0.7-0.6,1-1.4,1-2.4c0-1.1-0.3-2-1-2.6s-1.7-0.9-3.1-0.9h-4.7L127.2,93.3
		L127.2,93.3z"/>
	<path id="XMLID_48_" class="st0" d="M157.8,95.2h-8.5v6.8h7.8l0.3-3h3v5.8h-17.5v-2.3l2.9-0.5V86.6l-2.9-0.5v-2.3h2.9h14.6v5.8h-3
		l-0.3-3h-7.8v5.9h8.5C157.8,92.5,157.8,95.2,157.8,95.2z"/>
	<path id="XMLID_50_" class="st0" d="M178.2,95.2h-8.5v6.8h7.8l0.3-3h3v5.8h-17.5v-2.3l2.9-0.5V86.6l-2.9-0.5v-2.3h2.9h14.6v5.8h-3
		l-0.3-3h-7.8v5.9h8.5V95.2z"/>
	<path id="XMLID_52_" class="st0" d="M203.1,83.8v5.8h-3l-0.3-3h-4.6V102l2.9,0.5v2.3h-9.4v-2.3l2.9-0.5V86.5h-4.4l-0.3,3h-3v-5.8
		h19.2V83.8z"/>
	<path id="XMLID_54_" class="st0" d="M224.5,94.7c0,3.1-0.9,5.5-2.6,7.4c-1.7,1.9-4,2.8-6.8,2.8s-5-0.9-6.8-2.8
		c-1.7-1.9-2.6-4.4-2.6-7.4v-1c0-3,0.9-5.5,2.6-7.4c1.7-1.9,4-2.9,6.7-2.9c2.8,0,5,1,6.8,2.9c1.7,1.9,2.6,4.4,2.6,7.4v1H224.5z
		 M221,93.8c0-2.3-0.5-4.2-1.6-5.5c-1-1.3-2.5-2-4.3-2s-3.2,0.7-4.2,2c-1,1.3-1.5,3.2-1.5,5.5v1c0,2.4,0.5,4.2,1.6,5.5
		c1,1.3,2.5,2,4.3,2s3.2-0.7,4.3-2c1-1.3,1.6-3.2,1.6-5.5v-1H221z"/>
	<path id="XMLID_57_" class="st0" d="M237.9,83.8c2.5,0,4.3,0.5,5.7,1.6c1.3,1.1,2,2.6,2,4.5c0,1.1-0.3,2-0.9,2.7
		c-0.6,0.8-1.5,1.4-2.6,1.8c1.2,0.4,2.1,1,2.7,1.8c0.6,0.8,0.8,1.9,0.8,3.2v2.1v0.5l1.8,0.3v2.3h-5c-0.1-0.3-0.2-0.7-0.3-1.3
		c0-0.6-0.1-1.2-0.1-1.8v-2c0-1.1-0.3-1.9-0.9-2.5c-0.6-0.6-1.5-0.9-2.7-0.9h-5.3v5.8l2.9,0.5v2.3h-9.4v-2.3l2.9-0.5V86.6l-2.9-0.5
		v-2.3h2.9H237.9z M233.2,93.3h4.7c1.4,0,2.5-0.3,3.2-0.8c0.7-0.6,1-1.4,1-2.4c0-1.1-0.3-2-1-2.6s-1.7-0.9-3.1-0.9h-4.7L233.2,93.3
		L233.2,93.3z"/>
	<path id="XMLID_60_" class="st0" d="M248.6,102.4l1.5-0.3l7.4-18.4h3.3l7.4,18.4l1.5,0.3v2.3h-7v-2.3l1.9-0.3l-0.9-2.2h-9.1
		l-0.9,2.2l1.9,0.3v2.3h-7L248.6,102.4L248.6,102.4z M255.7,97.1h7l-3.5-8.9h-0.1L255.7,97.1z"/>
	<path id="XMLID_63_" class="st0" d="M270.4,86.1v-2.3h9.4v2.3l-2.9,0.5v6.6H287v-6.6l-2.9-0.5v-2.3h2.9h3.6h2.9v2.3l-2.9,0.5v15.3
		l2.9,0.5v2.3h-9.4v-2.3l2.9-0.5v-6h-10.1v6l2.9,0.5v2.3h-9.4v-2.3l2.9-0.5V86.6L270.4,86.1z"/>
</g>
<g id="XMLID_42_">
	<path id="XMLID_65_" class="st1" d="M81.4,121.9v-10.6h1.2v10.6H81.4z"/>
	<path id="XMLID_67_" class="st1" d="M91,121.9v-5.2c0-0.7-0.1-1.1-0.4-1.5c-0.3-0.3-0.8-0.5-1.4-0.5c-0.8,0-1.4,0.2-1.8,0.7
		c-0.4,0.5-0.6,1.2-0.6,2.2v4.2h-1.2v-8h1l0.2,1.1h0.1c0.2-0.4,0.6-0.7,1-0.9c0.4-0.2,0.9-0.3,1.5-0.3c1,0,1.7,0.2,2.2,0.7
		s0.7,1.2,0.7,2.2v5.2L91,121.9L91,121.9z"/>
	<path id="XMLID_69_" class="st1" d="M100.2,120.8L100.2,120.8c-0.6,0.8-1.5,1.2-2.6,1.2c-1,0-1.9-0.4-2.4-1.1s-0.9-1.7-0.9-3
		c0-1.3,0.3-2.3,0.9-3.1c0.6-0.8,1.4-1.1,2.4-1.1c1.1,0,1.9,0.4,2.5,1.2h0.1l-0.1-0.6v-0.6v-3.2h1.2v11.3h-1L100.2,120.8z M97.8,121
		c0.8,0,1.4-0.2,1.8-0.7c0.4-0.4,0.6-1.2,0.6-2.2v-0.3c0-1.1-0.2-1.9-0.6-2.4s-1-0.7-1.8-0.7c-0.7,0-1.2,0.3-1.6,0.8
		c-0.4,0.5-0.6,1.3-0.6,2.3s0.2,1.8,0.6,2.3C96.5,120.8,97.1,121,97.8,121z"/>
	<path id="XMLID_72_" class="st1" d="M105.2,113.9v5.2c0,0.6,0.1,1.1,0.4,1.5s0.8,0.5,1.4,0.5c0.8,0,1.4-0.2,1.8-0.7
		c0.4-0.5,0.6-1.2,0.6-2.2V114h1.2v8h-1l-0.2-1.1h-0.1c-0.2,0.4-0.6,0.7-1,0.9c-0.4,0.2-0.9,0.3-1.5,0.3c-1,0-1.7-0.2-2.2-0.7
		s-0.7-1.2-0.7-2.2V114L105.2,113.9L105.2,113.9z M106.5,112.7c0.2-0.3,0.5-0.7,0.8-1.1c0.3-0.4,0.5-0.8,0.6-1.1h1.5v0.2
		c-0.2,0.3-0.5,0.7-1,1.2c-0.4,0.5-0.8,0.8-1.1,1.1h-0.8V112.7z"/>
	<path id="XMLID_75_" class="st1" d="M118.5,119.7c0,0.7-0.3,1.3-0.8,1.7c-0.6,0.4-1.3,0.6-2.3,0.6c-1.1,0-1.9-0.2-2.5-0.5v-1.1
		c0.4,0.2,0.8,0.3,1.2,0.5c0.4,0.2,0.9,0.2,1.3,0.2c0.6,0,1.1-0.1,1.5-0.3c0.3-0.2,0.5-0.5,0.5-0.9c0-0.3-0.1-0.6-0.4-0.8
		c-0.3-0.2-0.8-0.5-1.6-0.8c-0.7-0.3-1.3-0.5-1.6-0.7c-0.3-0.2-0.5-0.4-0.7-0.7c-0.2-0.3-0.2-0.6-0.2-0.9c0-0.7,0.3-1.2,0.8-1.5
		c0.5-0.4,1.3-0.6,2.2-0.6s1.7,0.2,2.5,0.5l-0.4,1c-0.8-0.3-1.5-0.5-2.2-0.5c-0.6,0-1,0.1-1.3,0.3c-0.3,0.2-0.4,0.4-0.4,0.7
		c0,0.2,0.1,0.4,0.2,0.5c0.1,0.2,0.3,0.3,0.5,0.4c0.2,0.1,0.7,0.3,1.4,0.6c0.9,0.3,1.6,0.7,1.9,1
		C118.3,118.8,118.5,119.2,118.5,119.7z"/>
	<path id="XMLID_77_" class="st1" d="M123.2,121.1c0.2,0,0.4,0,0.6,0s0.4-0.1,0.5-0.1v0.9c-0.1,0.1-0.3,0.1-0.6,0.2
		c-0.3,0-0.5,0.1-0.7,0.1c-1.5,0-2.3-0.8-2.3-2.4v-4.7h-1.1v-0.8l1.1-0.5l0.5-1.7h0.7v1.8h2.3v0.9h-2.3v4.7c0,0.5,0.1,0.8,0.3,1.1
		C122.5,120.9,122.8,121.1,123.2,121.1z"/>
	<path id="XMLID_79_" class="st1" d="M129.7,113.8c0.4,0,0.7,0,1,0.1l-0.2,1.1c-0.3-0.1-0.6-0.1-0.9-0.1c-0.6,0-1.2,0.3-1.7,0.8
		c-0.5,0.5-0.7,1.2-0.7,2v4.3H126v-8h1l0.1,1.5h0.1c0.3-0.5,0.7-0.9,1.1-1.2C128.7,113.9,129.2,113.8,129.7,113.8z"/>
	<path id="XMLID_81_" class="st1" d="M132.2,111.8c0-0.3,0.1-0.5,0.2-0.6c0.1-0.1,0.3-0.2,0.5-0.2s0.4,0.1,0.5,0.2
		c0.1,0.1,0.2,0.3,0.2,0.6c0,0.3-0.1,0.5-0.2,0.6c-0.1,0.1-0.3,0.2-0.5,0.2s-0.4-0.1-0.5-0.2C132.2,112.3,132.2,112.1,132.2,111.8z
		 M133.5,121.9h-1.2v-8h1.2V121.9z"/>
	<path id="XMLID_84_" class="st1" d="M141.1,121.9l-0.2-1.1h-0.1c-0.4,0.5-0.8,0.8-1.2,1c-0.4,0.2-0.9,0.3-1.5,0.3
		c-0.8,0-1.4-0.2-1.9-0.6c-0.5-0.4-0.7-1-0.7-1.7c0-1.6,1.3-2.5,3.9-2.5h1.4v-0.5c0-0.6-0.1-1.1-0.4-1.4s-0.7-0.4-1.3-0.4
		c-0.7,0-1.4,0.2-2.3,0.6l-0.4-0.9c0.4-0.2,0.8-0.4,1.3-0.5s0.9-0.2,1.4-0.2c1,0,1.7,0.2,2.1,0.6c0.4,0.4,0.7,1.1,0.7,2v5.4
		L141.1,121.9L141.1,121.9z M138.4,121.1c0.8,0,1.3-0.2,1.8-0.6c0.5-0.4,0.6-1,0.6-1.7v-0.7l-1.2,0.1c-1,0-1.7,0.2-2.1,0.4
		c-0.4,0.3-0.6,0.7-0.6,1.2c0,0.4,0.1,0.8,0.4,1C137.5,121,137.9,121.1,138.4,121.1z"/>
	<path id="XMLID_87_" class="st1" d="M154.1,120.8L154.1,120.8c-0.6,0.8-1.5,1.2-2.6,1.2c-1,0-1.9-0.4-2.4-1.1s-0.9-1.7-0.9-3
		c0-1.3,0.3-2.3,0.9-3.1c0.6-0.8,1.4-1.1,2.4-1.1c1.1,0,1.9,0.4,2.5,1.2h0.1l-0.1-0.6v-0.6v-3.2h1.2v11.3h-1L154.1,120.8z
		 M151.7,121c0.8,0,1.4-0.2,1.8-0.7c0.4-0.4,0.6-1.2,0.6-2.2v-0.3c0-1.1-0.2-1.9-0.6-2.4c-0.4-0.5-1-0.7-1.8-0.7
		c-0.7,0-1.2,0.3-1.6,0.8c-0.4,0.5-0.6,1.3-0.6,2.3s0.2,1.8,0.6,2.3C150.4,120.8,150.9,121,151.7,121z"/>
	<path id="XMLID_90_" class="st1" d="M161.3,122.1c-1.2,0-2.1-0.4-2.8-1.1c-0.7-0.7-1-1.7-1-3c0-1.3,0.3-2.3,0.9-3.1
		c0.6-0.8,1.5-1.1,2.6-1.1c1,0,1.8,0.3,2.4,1c0.6,0.7,0.9,1.5,0.9,2.6v0.8h-5.5c0,0.9,0.3,1.6,0.7,2.1c0.4,0.5,1.1,0.7,1.9,0.7
		c0.9,0,1.7-0.2,2.5-0.5v1.1c-0.4,0.2-0.8,0.3-1.2,0.4C162.3,122.1,161.8,122.1,161.3,122.1z M161,114.8c-0.6,0-1.2,0.2-1.5,0.6
		c-0.3,0.4-0.6,1-0.7,1.7h4.2c0-0.8-0.2-1.3-0.5-1.8C162.1,115,161.6,114.8,161,114.8z"/>
	<path id="XMLID_93_" class="st1" d="M177.4,114.4c0,1.1-0.4,1.9-1.1,2.5s-1.8,0.9-3.2,0.9h-1.3v4.2h-1.2v-10.7h2.8
		C176,111.3,177.4,112.3,177.4,114.4z M171.9,116.7h1.1c1.1,0,1.9-0.2,2.4-0.5c0.5-0.4,0.7-0.9,0.7-1.7c0-0.7-0.2-1.2-0.7-1.6
		c-0.5-0.3-1.2-0.5-2.2-0.5h-1.4v4.3H171.9z"/>
	<path id="XMLID_96_" class="st1" d="M184.5,121.9l-0.2-1.1h-0.1c-0.4,0.5-0.8,0.8-1.2,1c-0.4,0.2-0.9,0.3-1.5,0.3
		c-0.8,0-1.4-0.2-1.9-0.6c-0.5-0.4-0.7-1-0.7-1.7c0-1.6,1.3-2.5,3.9-2.5h1.4v-0.5c0-0.6-0.1-1.1-0.4-1.4s-0.7-0.4-1.3-0.4
		c-0.7,0-1.4,0.2-2.3,0.6l-0.4-0.9c0.4-0.2,0.8-0.4,1.3-0.5s0.9-0.2,1.4-0.2c1,0,1.7,0.2,2.1,0.6c0.4,0.4,0.7,1.1,0.7,2v5.4
		L184.5,121.9L184.5,121.9z M181.7,121.1c0.8,0,1.3-0.2,1.8-0.6c0.5-0.4,0.6-1,0.6-1.7v-0.7l-1.2,0.1c-1,0-1.7,0.2-2.1,0.4
		c-0.4,0.3-0.6,0.7-0.6,1.2c0,0.4,0.1,0.8,0.4,1C180.9,121,181.3,121.1,181.7,121.1z"/>
	<path id="XMLID_99_" class="st1" d="M191.7,122.1c-0.5,0-1-0.1-1.4-0.3c-0.4-0.2-0.8-0.5-1.1-0.9h-0.1c0.1,0.5,0.1,0.9,0.1,1.3v3.3
		H188v-11.6h1l0.2,1.1h0.1c0.3-0.4,0.7-0.8,1.1-0.9c0.4-0.2,0.9-0.3,1.4-0.3c1.1,0,1.9,0.4,2.4,1.1c0.6,0.7,0.9,1.7,0.9,3
		c0,1.3-0.3,2.3-0.9,3.1C193.6,121.7,192.8,122.1,191.7,122.1z M191.5,114.8c-0.8,0-1.4,0.2-1.8,0.7s-0.6,1.2-0.6,2.2v0.3
		c0,1.1,0.2,1.9,0.6,2.4s1,0.7,1.8,0.7c0.7,0,1.2-0.3,1.6-0.8c0.4-0.6,0.6-1.3,0.6-2.3s-0.2-1.8-0.6-2.3
		C192.8,115.1,192.2,114.8,191.5,114.8z"/>
	<path id="XMLID_102_" class="st1" d="M200.7,122.1c-1.2,0-2.1-0.4-2.8-1.1s-1-1.7-1-3c0-1.3,0.3-2.3,0.9-3.1
		c0.6-0.8,1.5-1.1,2.6-1.1c1,0,1.8,0.3,2.4,1c0.6,0.7,0.9,1.5,0.9,2.6v0.8h-5.5c0,0.9,0.3,1.6,0.7,2.1s1.1,0.7,1.9,0.7
		c0.9,0,1.7-0.2,2.5-0.5v1.1c-0.4,0.2-0.8,0.3-1.2,0.4C201.7,122.1,201.2,122.1,200.7,122.1z M200.3,114.8c-0.6,0-1.2,0.2-1.5,0.6
		c-0.3,0.4-0.6,1-0.7,1.7h4.2c0-0.8-0.2-1.3-0.5-1.8C201.4,115,201,114.8,200.3,114.8z"/>
	<path id="XMLID_105_" class="st1" d="M207,121.9h-1.2v-11.3h1.2V121.9z"/>
	<path id="XMLID_107_" class="st1" d="M217.1,122.1c-1.2,0-2.1-0.4-2.8-1.1s-1-1.7-1-3c0-1.3,0.3-2.3,0.9-3.1
		c0.6-0.8,1.5-1.1,2.5-1.1s1.8,0.3,2.4,1c0.6,0.7,0.9,1.5,0.9,2.6v0.8h-5.5c0,0.9,0.3,1.6,0.7,2.1s1.1,0.7,1.9,0.7
		c0.9,0,1.7-0.2,2.5-0.5v1.1c-0.4,0.2-0.8,0.3-1.2,0.4C218,122.1,217.6,122.1,217.1,122.1z M216.8,114.8c-0.6,0-1.2,0.2-1.5,0.6
		c-0.3,0.4-0.6,1-0.7,1.7h4.2c0-0.8-0.2-1.3-0.5-1.8C217.9,115,217.4,114.8,216.8,114.8z"/>
	<path id="XMLID_110_" class="st1" d="M231,112.2c-1.2,0-2.1,0.4-2.8,1.2c-0.7,0.8-1,1.8-1,3.2s0.3,2.5,1,3.2
		c0.7,0.7,1.6,1.1,2.8,1.1c0.7,0,1.6-0.1,2.5-0.4v1.1c-0.7,0.3-1.6,0.4-2.7,0.4c-1.6,0-2.8-0.5-3.6-1.4c-0.9-1-1.3-2.3-1.3-4.1
		c0-1.1,0.2-2.1,0.6-2.9c0.4-0.8,1-1.5,1.8-1.9s1.7-0.7,2.7-0.7c1.1,0,2.1,0.2,2.9,0.6l-0.5,1.1C232.6,112.4,231.8,112.2,231,112.2z
		"/>
	<path id="XMLID_112_" class="st1" d="M239.2,122.1c-1.2,0-2.1-0.4-2.8-1.1s-1-1.7-1-3c0-1.3,0.3-2.3,0.9-3.1
		c0.6-0.8,1.5-1.1,2.5-1.1s1.8,0.3,2.4,1c0.6,0.7,0.9,1.5,0.9,2.6v0.8h-5.5c0,0.9,0.3,1.6,0.7,2.1s1.1,0.7,1.9,0.7
		c0.9,0,1.7-0.2,2.5-0.5v1.1c-0.4,0.2-0.8,0.3-1.2,0.4C240.1,122.1,239.7,122.1,239.2,122.1z M238.8,114.8c-0.6,0-1.2,0.2-1.5,0.6
		c-0.3,0.4-0.6,1-0.7,1.7h4.2c0-0.8-0.2-1.3-0.5-1.8C240,115,239.5,114.8,238.8,114.8z"/>
	<path id="XMLID_115_" class="st1" d="M245.5,121.9h-1.2v-11.3h1.2V121.9z"/>
	<path id="XMLID_117_" class="st1" d="M249.4,113.9v5.2c0,0.6,0.1,1.1,0.4,1.5s0.8,0.5,1.4,0.5c0.8,0,1.4-0.2,1.8-0.7
		c0.4-0.5,0.6-1.2,0.6-2.2V114h1.2v8h-1l-0.2-1.1h-0.1c-0.2,0.4-0.6,0.7-1,0.9c-0.4,0.2-0.9,0.3-1.5,0.3c-1,0-1.7-0.2-2.2-0.7
		s-0.7-1.2-0.7-2.2V114L249.4,113.9L249.4,113.9z"/>
	<path id="XMLID_119_" class="st1" d="M258.7,121.9h-1.2v-11.3h1.2V121.9z"/>
	<path id="XMLID_121_" class="st1" d="M268.3,117.9c0,1.3-0.3,2.3-1,3c-0.7,0.7-1.6,1.1-2.7,1.1c-0.7,0-1.3-0.2-1.9-0.5
		c-0.6-0.3-1-0.8-1.3-1.4c-0.3-0.6-0.5-1.4-0.5-2.2c0-1.3,0.3-2.3,1-3c0.7-0.7,1.6-1.1,2.7-1.1c1.1,0,2,0.4,2.7,1.1
		C268,115.7,268.3,116.7,268.3,117.9z M262.3,117.9c0,1,0.2,1.8,0.6,2.3c0.4,0.5,1,0.8,1.8,0.8c0.8,0,1.4-0.3,1.8-0.8
		c0.4-0.5,0.6-1.3,0.6-2.3s-0.2-1.8-0.6-2.3s-1-0.8-1.8-0.8c-0.8,0-1.4,0.3-1.8,0.8C262.5,116.1,262.3,116.9,262.3,117.9z"/>
	<path id="XMLID_124_" class="st1" d="M275.7,119.7c0,0.7-0.3,1.3-0.8,1.7c-0.6,0.4-1.3,0.6-2.3,0.6c-1.1,0-1.9-0.2-2.5-0.5v-1.1
		c0.4,0.2,0.8,0.3,1.2,0.5c0.4,0.1,0.9,0.2,1.3,0.2c0.6,0,1.1-0.1,1.5-0.3c0.4-0.2,0.5-0.5,0.5-0.9c0-0.3-0.1-0.6-0.4-0.8
		c-0.3-0.2-0.8-0.5-1.6-0.8c-0.7-0.3-1.3-0.5-1.6-0.7c-0.3-0.2-0.5-0.4-0.7-0.7c-0.2-0.3-0.2-0.6-0.2-0.9c0-0.7,0.3-1.2,0.8-1.5
		c0.5-0.4,1.3-0.6,2.2-0.6s1.7,0.2,2.5,0.5l-0.4,1c-0.8-0.3-1.5-0.5-2.2-0.5c-0.6,0-1,0.1-1.3,0.3c-0.3,0.2-0.4,0.4-0.4,0.7
		c0,0.2,0.1,0.4,0.2,0.5c0.1,0.2,0.3,0.3,0.5,0.4c0.2,0.1,0.7,0.3,1.4,0.6c0.9,0.3,1.6,0.7,1.9,1
		C275.6,118.7,275.7,119.2,275.7,119.7z"/>
	<path id="XMLID_126_" class="st1" d="M281.2,122.1c-1.2,0-2.1-0.4-2.8-1.1c-0.7-0.7-1-1.7-1-3c0-1.3,0.3-2.3,0.9-3.1
		c0.6-0.8,1.5-1.1,2.5-1.1s1.8,0.3,2.4,1c0.6,0.7,0.9,1.5,0.9,2.6v0.8h-5.5c0,0.9,0.3,1.6,0.7,2.1s1.1,0.7,1.9,0.7
		c0.9,0,1.7-0.2,2.5-0.5v1.1c-0.4,0.2-0.8,0.3-1.2,0.4C282.1,122.1,281.8,122.1,281.2,122.1z M280.9,114.8c-0.6,0-1.2,0.2-1.5,0.6
		c-0.3,0.4-0.6,1-0.7,1.7h4.2c0-0.8-0.2-1.3-0.5-1.8C282,115,281.5,114.8,280.9,114.8z"/>
</g>
<g id="XMLID_30_">
	<g>
		<defs>
			<rect id="SVGID_1_" x="11.8" y="75.8" width="49.9" height="49.9"/>
		</defs>
		<clipPath id="SVGID_2_">
			<use xlink:href="#SVGID_1_"  style="overflow:visible;"/>
		</clipPath>
		
			<linearGradient id="XMLID_2_" gradientUnits="userSpaceOnUse" x1="36.8" y1="76.6136" x2="36.8" y2="126.5136" gradientTransform="matrix(1 0 0 -1 0 203)">
			<stop  offset="0" style="stop-color:#324A8A"/>
			<stop  offset="2.333015e-02" style="stop-color:#324A8B"/>
			<stop  offset="0.6243" style="stop-color:#2754A2"/>
			<stop  offset="1" style="stop-color:#2357AB"/>
		</linearGradient>
		<rect id="XMLID_39_" x="11.8" y="75.8" class="st2" width="49.9" height="49.9"/>
	</g>
	<g>
		<defs>
			<rect id="SVGID_3_" x="11.8" y="75.8" width="49.9" height="49.9"/>
		</defs>
		<clipPath id="SVGID_4_">
			<use xlink:href="#SVGID_3_"  style="overflow:visible;"/>
		</clipPath>
		<g id="XMLID_32_" class="st3">
			<path id="XMLID_38_" class="st4" d="M34.6,121.3c-2.4-3.1-4.8-5.9-7.1-8c-1.1-1.1-2.2-2-3.3-2.8c-1-0.8-1.9-1.4-2.7-1.8
				c-0.8-0.5-1.5-0.8-1.9-1c-0.5-0.2-0.7-0.3-0.7-0.3s0.2,0.1,0.7,0.2c0.5,0.2,1.1,0.4,2,0.9c0.8,0.4,1.8,1,2.9,1.7
				c1.1,0.7,2.2,1.6,3.4,2.6c2.4,2.1,5.1,4.7,7.6,7.7c1.3,1.5,2.6,3.1,3.8,4.8c-0.4-22.7-19-40.7-41.9-40.7l0,0
				c0.1,22,18.1,41.1,40.7,41.7C37,124.6,35.9,122.9,34.6,121.3z"/>
			
				<linearGradient id="XMLID_3_" gradientUnits="userSpaceOnUse" x1="18.6311" y1="97.5084" x2="47.2456" y2="67.1581" gradientTransform="matrix(1 0 0 -1 0 203)">
				<stop  offset="0" style="stop-color:#FFFFFF;stop-opacity:0"/>
				<stop  offset="8.863629e-02" style="stop-color:#F3F3F3;stop-opacity:8.863629e-02"/>
				<stop  offset="0.251" style="stop-color:#D1D1D1;stop-opacity:0.251"/>
				<stop  offset="0.4689" style="stop-color:#9C9C9C;stop-opacity:0.4689"/>
				<stop  offset="0.7343" style="stop-color:#515151;stop-opacity:0.7343"/>
				<stop  offset="1" style="stop-color:#000000"/>
			</linearGradient>
			<path id="XMLID_37_" class="st5" d="M34.6,121.3c-2.4-3.1-4.8-5.9-7.1-8c-1.1-1.1-2.2-2-3.3-2.8c-1-0.8-1.9-1.4-2.7-1.8
				c-0.8-0.5-1.5-0.8-1.9-1c-0.5-0.2-0.7-0.3-0.7-0.3s0.2,0.1,0.7,0.2c0.5,0.2,1.1,0.4,2,0.9c0.8,0.4,1.8,1,2.9,1.7
				c1.1,0.7,2.2,1.6,3.4,2.6c2.4,2.1,5.1,4.7,7.6,7.7c1.3,1.5,2.6,3.1,3.8,4.8c-0.4-22.7-19-40.7-41.9-40.7l0,0
				c0.1,22,18.1,41.1,40.7,41.7C37,124.6,35.9,122.9,34.6,121.3z"/>
			<path id="XMLID_36_" class="st6" d="M44.8,123.3c1.4-1.9,2.9-3.5,4.3-4.8c0.7-0.6,1.3-1.2,2-1.7c0.6-0.5,1.2-0.8,1.6-1.1
				c0.5-0.3,0.9-0.5,1.1-0.6c0.3-0.1,0.4-0.2,0.4-0.2S54,115,53.8,115c-0.3,0.1-0.7,0.3-1.2,0.5c-0.5,0.3-1.1,0.6-1.7,1
				s-1.3,1-2.1,1.6c-1.5,1.2-3,2.8-4.6,4.6c-0.8,0.9-1.5,1.6-2.3,2.6c0.3-13.7,11.5-24.8,25.3-24.8l0,0c0,14-10.9,25-24.5,25.4
				C43.4,124.9,44,124.2,44.8,123.3z"/>
			
				<linearGradient id="XMLID_4_" gradientUnits="userSpaceOnUse" x1="56.1178" y1="91.1155" x2="36.7103" y2="74.7717" gradientTransform="matrix(1 0 0 -1 0 203)">
				<stop  offset="0" style="stop-color:#FFFFFF;stop-opacity:0"/>
				<stop  offset="8.863629e-02" style="stop-color:#F3F3F3;stop-opacity:8.863629e-02"/>
				<stop  offset="0.251" style="stop-color:#D1D1D1;stop-opacity:0.251"/>
				<stop  offset="0.4689" style="stop-color:#9C9C9C;stop-opacity:0.4689"/>
				<stop  offset="0.7343" style="stop-color:#515151;stop-opacity:0.7343"/>
				<stop  offset="1" style="stop-color:#000000"/>
			</linearGradient>
			<path id="XMLID_35_" class="st7" d="M44.8,123.3c1.4-1.9,2.9-3.5,4.3-4.8c0.7-0.6,1.3-1.2,2-1.7c0.6-0.5,1.2-0.8,1.6-1.1
				c0.5-0.3,0.9-0.5,1.1-0.6c0.3-0.1,0.4-0.2,0.4-0.2S54,115,53.8,115c-0.3,0.1-0.7,0.3-1.2,0.5c-0.5,0.3-1.1,0.6-1.7,1
				s-1.3,1-2.1,1.6c-1.5,1.2-3,2.8-4.6,4.6c-0.8,0.9-1.5,1.6-2.3,2.6c0.3-13.7,11.5-24.8,25.3-24.8l0,0c0,14-10.9,25-24.5,25.4
				C43.4,124.9,44,124.2,44.8,123.3z"/>
			<path id="XMLID_34_" class="st8" d="M41.9,106.4c-0.4-2.8-0.5-5.4-0.5-7.6c0-1.1,0.1-2.1,0.2-3c0.1-0.9,0.3-1.7,0.5-2.3
				s0.3-1.1,0.5-1.4c0.1-0.3,0.2-0.5,0.2-0.5s-0.1,0.2-0.2,0.5c-0.1,0.3-0.4,0.8-0.5,1.4c-0.2,0.6-0.4,1.4-0.6,2.3
				c-0.2,0.9-0.3,1.9-0.4,3c-0.2,2.2-0.2,4.9,0,7.7c0.1,1.4,0.2,2.8,0.5,4.3c-11.2-11.7-10.9-30.1,0.6-41.6l0,0
				c11.3,11.3,11.6,29.8,0.5,41.4C42.2,109.1,42,107.7,41.9,106.4z"/>
			
				<linearGradient id="XMLID_5_" gradientUnits="userSpaceOnUse" x1="42.0684" y1="107.2887" x2="42.0684" y2="89.8656" gradientTransform="matrix(1 0 0 -1 0 203)">
				<stop  offset="0" style="stop-color:#FFFFFF;stop-opacity:0"/>
				<stop  offset="8.863629e-02" style="stop-color:#F3F3F3;stop-opacity:8.863629e-02"/>
				<stop  offset="0.251" style="stop-color:#D1D1D1;stop-opacity:0.251"/>
				<stop  offset="0.4689" style="stop-color:#9C9C9C;stop-opacity:0.4689"/>
				<stop  offset="0.7343" style="stop-color:#515151;stop-opacity:0.7343"/>
				<stop  offset="1" style="stop-color:#000000"/>
			</linearGradient>
			<path id="XMLID_33_" class="st9" d="M41.9,106.4c-0.4-2.8-0.5-5.4-0.5-7.6c0-1.1,0.1-2.1,0.2-3c0.1-0.9,0.3-1.7,0.5-2.3
				s0.3-1.1,0.5-1.4c0.1-0.3,0.2-0.5,0.2-0.5s-0.1,0.2-0.2,0.5c-0.1,0.3-0.4,0.8-0.5,1.4c-0.2,0.6-0.4,1.4-0.6,2.3
				c-0.2,0.9-0.3,1.9-0.4,3c-0.2,2.2-0.2,4.9,0,7.7c0.1,1.4,0.2,2.8,0.5,4.3c-11.2-11.7-10.9-30.1,0.6-41.6l0,0
				c11.3,11.3,11.6,29.8,0.5,41.4C42.2,109.1,42,107.7,41.9,106.4z"/>
		</g>
	</g>
</g>
</svg>
