<?xml version="1.0" encoding="utf-8"?>
<!-- Generator: Adobe Illustrator 19.0.0, SVG Export Plug-In . SVG Version: 6.00 Build 0)  -->
<svg version="1.1" id="Layer_1" xmlns="http://www.w3.org/2000/svg" xmlns:xlink="http://www.w3.org/1999/xlink" x="0px" y="0px"
	 viewBox="0 0 100 100" style="enable-background:new 0 0 100 100;" xml:space="preserve">
<style type="text/css">
	.st0{fill:#352C43;}
	.st1{fill:#3DB5C2;}
	.st2{fill:#E9FEA9;}
	.st3{fill:#62CEC0;}
	.st4{fill:#FFFFFF;}
</style>
<path id="XMLID_49_" class="st0" d="M39.1,93.3c2.6-2.9,6.3-4.8,10.5-4.8c4.2,0,8,2,10.5,4.8h3.9c-3-4.7-8.4-8-14.5-8
	s-11.4,3.3-14.5,8H39.1z"/>
<path id="XMLID_48_" class="st0" d="M81.2,42.4C81.2,60,67,74,49.6,74S18.1,60,18.1,42.4h-4.3c0,19.7,16.1,35.9,35.9,35.9
	s35.9-16.1,35.9-35.9H81.2z"/>
<path id="XMLID_47_" class="st0" d="M65,42.4c0,0,0,0.1,0,0.1c0,8.5-6.9,15.3-15.4,15.3S34.3,51,34.3,42.5c0,0,0-0.1,0-0.1H30
	c0,0,0,0.1,0,0.1c0,10.9,8.8,19.6,19.7,19.6s19.7-8.8,19.7-19.6c0,0,0-0.1,0-0.1H65z"/>
<path id="XMLID_46_" class="st0" d="M73.1,42.1c0,0.4,0,0.3,0,0.4C73.1,55.4,62.5,66,49.6,66S26.2,55.4,26.2,42.5c0-0.1,0,0,0-0.4
	h-4.3c0,0.4,0,0.3,0,0.4c0,15.3,12.4,27.8,27.7,27.8s27.7-12.5,27.7-27.8c0-0.1,0,0,0-0.4H73.1z"/>
<path id="XMLID_8_" class="st1" d="M18.1,43.5C18.1,25.9,32.3,12,49.6,12s31.5,14,31.5,31.5h4.3c0-19.7-16.1-35.9-35.9-35.9
	S13.8,23.8,13.8,43.5H18.1z"/>
<path id="XMLID_7_" class="st2" d="M34.3,43.5c0,0,0-0.1,0-0.1c0-8.5,6.9-15.3,15.4-15.3S65,34.9,65,43.4c0,0,0,0.1,0,0.1h4.3
	c0,0,0-0.1,0-0.1c0-10.9-8.8-19.6-19.7-19.6S30,32.6,30,43.4c0,0,0,0.1,0,0.1H34.3z"/>
<path id="XMLID_6_" class="st3" d="M26.2,43.9c0-0.4,0-0.3,0-0.4C26.2,30.5,36.7,20,49.6,20s23.4,10.5,23.4,23.5c0,0.1,0,0,0,0.4
	h4.3c0-0.4,0-0.3,0-0.4c0-15.3-12.4-27.8-27.7-27.8S21.9,28.2,21.9,43.5c0,0.1,0,0,0,0.4H26.2z"/>
<rect id="XMLID_45_" x="49.1" y="42.5" class="st4" width="3.5" height="46.9"/>
<rect id="XMLID_44_" x="47.9" y="42.5" class="st0" width="3.5" height="46"/>
<rect id="XMLID_1_" x="12.5" y="42.4" class="st4" width="75" height="3.2"/>
</svg>
