<?xml version="1.0" encoding="utf-8"?>
<!-- Generator: Adobe Illustrator 19.0.0, SVG Export Plug-In . SVG Version: 6.00 Build 0)  -->
<svg version="1.1" id="Layer_1" xmlns="http://www.w3.org/2000/svg" xmlns:xlink="http://www.w3.org/1999/xlink" x="0px" y="0px"
	 viewBox="0 0 400 90" style="enable-background:new 0 0 400 90;" xml:space="preserve">
<style type="text/css">
	.st0{font-family:'Merriweather-BoldItalic';}
	.st1{font-size:57.1607px;}
	.st2{fill:#23AB6C;}
	.st3{fill:#73C151;}
</style>
<text id="XMLID_43_" transform="matrix(1 0 0 1 109.5157 72.9952)" class="st0 st1">threetorah</text>
<g id="XMLID_18_">
	<path id="XMLID_19_" class="st2" d="M78.9,53.4c-2.5,0.7-5.2,1.1-7.8,1.5c-2.7,0.4-5.7,0.9-8.5,1.6c-4.6,1.2-8.2,3.3-11.2,5.9V46.6
		c3-5,8.7-7.2,12-8.1c2.6-0.7,5.4-1.1,8.1-1.5c2.7-0.4,5.4-0.8,8.1-1.5c3.4-0.9,6.1-2.1,8.2-3.5c1.5,4.2,2.3,8.7,2.3,13.5
		c0,0.4,0,0.8,0,1.2C87.4,50.5,82.6,52.4,78.9,53.4z"/>
	<path id="XMLID_20_" class="st3" d="M36.4,24.3c4.1,1.1,9,3.3,12,8v19.7c-3-2.3-5.8-4.5-11.2-5.9c-2.7-0.7-5.5-1.1-8.1-1.5
		c-2.7-0.4-5.4-0.8-8-1.5c-2.8-0.7-7.4-2.4-10.3-5.9c1.3-6.1,4-11.8,7.7-16.5c0.6,0.2,1.2,0.4,1.9,0.6c2.8,0.7,5.6,1.2,8.3,1.6
		C31.3,23.2,33.9,23.6,36.4,24.3z"/>
	<path id="XMLID_21_" class="st2" d="M51.4,16.4V5.3c6,0.2,11.3,1.7,16.2,4.1c-1.7,0.3-3.4,0.6-5.1,1.1C58,11.7,54.4,13.8,51.4,16.4
		z"/>
	<path id="XMLID_22_" class="st2" d="M86.7,28.9c-2.5,1.7-5.3,2.8-7.8,3.4c-2.5,0.7-5.2,1.1-7.8,1.5c-2.7,0.4-5.7,0.9-8.5,1.6
		c-4.6,1.2-8.2,3.3-11.2,5.9V21.7c3-5,8.7-7.2,12-8.1c2.6-0.7,5.4-1.1,8.1-1.5c0.2,0,0.4-0.1,0.7-0.1C78.5,16.1,83.5,22,86.7,28.9z"
		/>
	<path id="XMLID_23_" class="st3" d="M48.4,27.1c-3-2.3-5.8-4.5-11.2-5.9c-2.7-0.7-5.5-1.1-8.1-1.5c-2.7-0.4-5.4-0.8-8-1.5
		c-0.1,0-0.4-0.1-0.5-0.1c7-7.5,16.8-12.3,27.8-12.7V27.1z"/>
	<path id="XMLID_24_" class="st3" d="M20.4,67.2c2.8,0.7,5.6,1.2,8.4,1.6c2.6,0.4,5.2,0.8,7.7,1.5c4.1,1.1,9,3.3,12,8v7.3
		C33.4,85,21.8,77,15.1,65.3C16.7,66.1,18.5,66.7,20.4,67.2z"/>
	<path id="XMLID_25_" class="st3" d="M29.2,65.6c-2.7-0.4-5.4-0.8-8-1.5c-2.2-0.6-5.6-1.8-8.4-4c-1.8-4.5-2.8-9.5-2.8-14.6
		c0-1.5,0.1-2.9,0.2-4.4c2.6,2.2,6.1,4,10.2,5.1c2.8,0.7,5.6,1.2,8.4,1.6c2.6,0.4,5.2,0.8,7.7,1.5c4.1,1.1,9,3.3,12,8V73
		c-3-2.3-5.8-4.5-11.2-5.9C34.6,66.4,31.8,66,29.2,65.6z"/>
	<path id="XMLID_26_" class="st2" d="M51.4,67.6c3-5,8.7-7.2,12-8.1c2.6-0.7,5.4-1.1,8.1-1.5c2.7-0.4,5.4-0.8,8.1-1.5
		c4.5-1.2,7.6-2.9,9.9-4.8c-2.9,18.6-18.1,33-38.1,33.8V67.6z"/>
</g>
</svg>
