<?xml version="1.0" encoding="utf-8"?>
<!-- Generator: Adobe Illustrator 19.0.0, SVG Export Plug-In . SVG Version: 6.00 Build 0)  -->
<svg version="1.1" id="Layer_1" xmlns="http://www.w3.org/2000/svg" xmlns:xlink="http://www.w3.org/1999/xlink" x="0px" y="0px"
	 viewBox="0 0 300 66.5" style="enable-background:new 0 0 300 66.5;" xml:space="preserve">
<style type="text/css">
	.st0{fill:#2357AB;}
	.st1{fill:#324A8A;}
	.st2{clip-path:url(#XMLID_129_);fill:url(#XMLID_130_);}
	.st3{clip-path:url(#XMLID_129_);}
	.st4{fill:#62CEC0;}
	.st5{opacity:0.57;fill:url(#XMLID_131_);}
	.st6{fill:#89ECD2;}
	.st7{opacity:0.57;fill:url(#XMLID_132_);}
	.st8{fill:#E9FEA9;}
	.st9{opacity:0.57;fill:url(#XMLID_133_);}
</style>
<g id="XMLID_27_">
	<path id="XMLID_28_" class="st0" d="M26.3,15.3v5.8h-3L23,18h-4.6v15.4l2.9,0.5v2.3H12v-2.3l2.9-0.5V18h-4.4l-0.3,3h-3v-5.8H26.3z"
		/>
	<path id="XMLID_43_" class="st0" d="M27.5,17.6v-2.3h9.4v2.3L34,18.1v6.6h10.1v-6.6l-2.9-0.5v-2.3h2.9h3.5h2.9v2.3l-2.9,0.5v15.3
		l2.9,0.5v2.3h-9.4v-2.3l2.9-0.5v-6H34v6l2.9,0.5v2.3h-9.4v-2.3l2.9-0.5V18.1L27.5,17.6z"/>
	<path id="XMLID_45_" class="st0" d="M62.9,15.3c2.5,0,4.3,0.5,5.7,1.6c1.3,1.1,2,2.6,2,4.5c0,1.1-0.3,2-0.9,2.7
		c-0.6,0.8-1.5,1.4-2.6,1.8c1.2,0.4,2.1,1,2.7,1.8s0.8,1.9,0.8,3.2v2.1v0.5l1.8,0.3v2.3h-5c-0.1-0.3-0.2-0.7-0.3-1.3
		c0-0.6-0.1-1.2-0.1-1.8V31c0-1.1-0.3-1.9-0.9-2.5c-0.6-0.6-1.5-0.9-2.7-0.9h-5.3v5.8l2.9,0.5v2.3h-9.4v-2.3l2.9-0.5V18.1l-2.9-0.5
		v-2.3h2.9H62.9z M58.2,24.8h4.7c1.4,0,2.5-0.3,3.2-0.8c0.7-0.6,1-1.4,1-2.4c0-1.1-0.3-2-1-2.6c-0.7-0.6-1.7-0.9-3.1-0.9h-4.7V24.8z
		"/>
	<path id="XMLID_48_" class="st0" d="M88.8,26.7h-8.5v6.8h7.8l0.3-3h3v5.8H73.9v-2.3l2.9-0.5V18.1l-2.9-0.5v-2.3h2.9h14.6v5.8h-3
		l-0.3-3h-7.8v5.9h8.5V26.7z"/>
	<path id="XMLID_50_" class="st0" d="M109.2,26.7h-8.5v6.8h7.8l0.3-3h3v5.8H94.3v-2.3l2.9-0.5V18.1l-2.9-0.5v-2.3h2.9h14.6v5.8h-3
		l-0.3-3h-7.8v5.9h8.5V26.7z"/>
	<path id="XMLID_52_" class="st0" d="M134.1,15.3v5.8h-3l-0.3-3h-4.6v15.4l2.9,0.5v2.3h-9.4v-2.3l2.9-0.5V18h-4.4l-0.3,3h-3v-5.8
		H134.1z"/>
	<path id="XMLID_54_" class="st0" d="M155.5,26.2c0,3.1-0.9,5.5-2.6,7.4c-1.7,1.9-4,2.8-6.8,2.8c-2.8,0-5-0.9-6.8-2.8
		c-1.7-1.9-2.6-4.4-2.6-7.4v-1c0-3,0.9-5.5,2.6-7.4c1.7-1.9,4-2.9,6.7-2.9c2.8,0,5,1,6.8,2.9c1.7,1.9,2.6,4.4,2.6,7.4V26.2z
		 M152,25.3c0-2.3-0.5-4.2-1.6-5.5c-1-1.3-2.5-2-4.3-2c-1.8,0-3.2,0.7-4.2,2c-1,1.3-1.5,3.2-1.5,5.5v1c0,2.4,0.5,4.2,1.6,5.5
		c1,1.3,2.5,2,4.3,2c1.8,0,3.2-0.7,4.3-2c1-1.3,1.6-3.2,1.6-5.5V25.3z"/>
	<path id="XMLID_57_" class="st0" d="M168.9,15.3c2.5,0,4.3,0.5,5.7,1.6c1.3,1.1,2,2.6,2,4.5c0,1.1-0.3,2-0.9,2.7
		c-0.6,0.8-1.5,1.4-2.6,1.8c1.2,0.4,2.1,1,2.7,1.8s0.8,1.9,0.8,3.2v2.1v0.5l1.8,0.3v2.3h-5c-0.1-0.3-0.2-0.7-0.3-1.3
		c0-0.6-0.1-1.2-0.1-1.8V31c0-1.1-0.3-1.9-0.9-2.5c-0.6-0.6-1.5-0.9-2.7-0.9h-5.3v5.8l2.9,0.5v2.3h-9.4v-2.3l2.9-0.5V18.1l-2.9-0.5
		v-2.3h2.9H168.9z M164.2,24.8h4.7c1.4,0,2.5-0.3,3.2-0.8c0.7-0.6,1-1.4,1-2.4c0-1.1-0.3-2-1-2.6c-0.7-0.6-1.7-0.9-3.1-0.9h-4.7
		V24.8z"/>
	<path id="XMLID_60_" class="st0" d="M179.6,33.9l1.5-0.3l7.4-18.4h3.3l7.4,18.4l1.5,0.3v2.3h-7v-2.3l1.9-0.3l-0.9-2.2h-9.1
		l-0.9,2.2l1.9,0.3v2.3h-7V33.9z M186.7,28.6h7l-3.5-8.9h-0.1L186.7,28.6z"/>
	<path id="XMLID_63_" class="st0" d="M201.4,17.6v-2.3h9.4v2.3l-2.9,0.5v6.6H218v-6.6l-2.9-0.5v-2.3h2.9h3.6h2.9v2.3l-2.9,0.5v15.3
		l2.9,0.5v2.3h-9.4v-2.3l2.9-0.5v-6h-10.1v6l2.9,0.5v2.3h-9.4v-2.3l2.9-0.5V18.1L201.4,17.6z"/>
</g>
<g id="XMLID_42_">
	<path id="XMLID_65_" class="st1" d="M22.6,53.6V43h1.2v10.6H22.6z"/>
	<path id="XMLID_67_" class="st1" d="M32.2,53.6v-5.2c0-0.7-0.1-1.1-0.4-1.5c-0.3-0.3-0.8-0.5-1.4-0.5c-0.8,0-1.4,0.2-1.8,0.7
		s-0.6,1.2-0.6,2.2v4.2h-1.2v-8h1l0.2,1.1h0.1c0.2-0.4,0.6-0.7,1-0.9s0.9-0.3,1.5-0.3c1,0,1.7,0.2,2.2,0.7c0.5,0.5,0.7,1.2,0.7,2.2
		v5.2H32.2z"/>
	<path id="XMLID_69_" class="st1" d="M41.4,52.5L41.4,52.5c-0.6,0.8-1.5,1.2-2.6,1.2c-1,0-1.9-0.4-2.4-1.1s-0.9-1.7-0.9-3
		s0.3-2.3,0.9-3.1s1.4-1.1,2.4-1.1c1.1,0,1.9,0.4,2.5,1.2h0.1l-0.1-0.6l0-0.6v-3.2h1.2v11.3h-1L41.4,52.5z M39,52.7
		c0.8,0,1.4-0.2,1.8-0.7c0.4-0.4,0.6-1.2,0.6-2.2v-0.3c0-1.1-0.2-1.9-0.6-2.4c-0.4-0.5-1-0.7-1.8-0.7c-0.7,0-1.2,0.3-1.6,0.8
		s-0.6,1.3-0.6,2.3c0,1,0.2,1.8,0.6,2.3C37.7,52.5,38.3,52.7,39,52.7z"/>
	<path id="XMLID_72_" class="st1" d="M46.4,45.6v5.2c0,0.6,0.1,1.1,0.4,1.5s0.8,0.5,1.4,0.5c0.8,0,1.4-0.2,1.8-0.7s0.6-1.2,0.6-2.2
		v-4.2h1.2v8h-1l-0.2-1.1h-0.1c-0.2,0.4-0.6,0.7-1,0.9c-0.4,0.2-0.9,0.3-1.5,0.3c-1,0-1.7-0.2-2.2-0.7c-0.5-0.5-0.7-1.2-0.7-2.2
		v-5.2H46.4z M47.7,44.4c0.2-0.3,0.5-0.7,0.8-1.1c0.3-0.4,0.5-0.8,0.6-1.1h1.5v0.2c-0.2,0.3-0.5,0.7-1,1.2c-0.4,0.5-0.8,0.8-1.1,1.1
		h-0.8V44.4z"/>
	<path id="XMLID_75_" class="st1" d="M59.7,51.4c0,0.7-0.3,1.3-0.8,1.7c-0.6,0.4-1.3,0.6-2.3,0.6c-1.1,0-1.9-0.2-2.5-0.5v-1.1
		c0.4,0.2,0.8,0.3,1.2,0.5s0.9,0.2,1.3,0.2c0.6,0,1.1-0.1,1.5-0.3c0.3-0.2,0.5-0.5,0.5-0.9c0-0.3-0.1-0.6-0.4-0.8s-0.8-0.5-1.6-0.8
		c-0.7-0.3-1.3-0.5-1.6-0.7s-0.5-0.4-0.7-0.7s-0.2-0.6-0.2-0.9c0-0.7,0.3-1.2,0.8-1.5c0.5-0.4,1.3-0.6,2.2-0.6
		c0.9,0,1.7,0.2,2.5,0.5l-0.4,1c-0.8-0.3-1.5-0.5-2.2-0.5c-0.6,0-1,0.1-1.3,0.3s-0.4,0.4-0.4,0.7c0,0.2,0.1,0.4,0.2,0.5
		c0.1,0.2,0.3,0.3,0.5,0.4s0.7,0.3,1.4,0.6c0.9,0.3,1.6,0.7,1.9,1C59.5,50.5,59.7,50.9,59.7,51.4z"/>
	<path id="XMLID_77_" class="st1" d="M64.4,52.8c0.2,0,0.4,0,0.6,0c0.2,0,0.4-0.1,0.5-0.1v0.9c-0.1,0.1-0.3,0.1-0.6,0.2
		c-0.3,0-0.5,0.1-0.7,0.1c-1.5,0-2.3-0.8-2.3-2.4v-4.7h-1.1V46l1.1-0.5l0.5-1.7h0.7v1.8h2.3v0.9h-2.3v4.7c0,0.5,0.1,0.8,0.3,1.1
		C63.7,52.6,64,52.8,64.4,52.8z"/>
	<path id="XMLID_79_" class="st1" d="M70.9,45.5c0.4,0,0.7,0,1,0.1l-0.2,1.1c-0.3-0.1-0.6-0.1-0.9-0.1c-0.6,0-1.2,0.3-1.7,0.8
		c-0.5,0.5-0.7,1.2-0.7,2v4.3h-1.2v-8h1l0.1,1.5h0.1c0.3-0.5,0.7-0.9,1.1-1.2C69.9,45.6,70.4,45.5,70.9,45.5z"/>
	<path id="XMLID_81_" class="st1" d="M73.4,43.5c0-0.3,0.1-0.5,0.2-0.6s0.3-0.2,0.5-0.2c0.2,0,0.4,0.1,0.5,0.2s0.2,0.3,0.2,0.6
		s-0.1,0.5-0.2,0.6c-0.1,0.1-0.3,0.2-0.5,0.2c-0.2,0-0.4-0.1-0.5-0.2C73.4,44,73.4,43.8,73.4,43.5z M74.7,53.6h-1.2v-8h1.2V53.6z"/>
	<path id="XMLID_84_" class="st1" d="M82.3,53.6l-0.2-1.1H82c-0.4,0.5-0.8,0.8-1.2,1s-0.9,0.3-1.5,0.3c-0.8,0-1.4-0.2-1.9-0.6
		s-0.7-1-0.7-1.7c0-1.6,1.3-2.5,3.9-2.5l1.4,0v-0.5c0-0.6-0.1-1.1-0.4-1.4c-0.3-0.3-0.7-0.4-1.3-0.4c-0.7,0-1.4,0.2-2.3,0.6
		l-0.4-0.9c0.4-0.2,0.8-0.4,1.3-0.5s0.9-0.2,1.4-0.2c1,0,1.7,0.2,2.1,0.6s0.7,1.1,0.7,2v5.4H82.3z M79.6,52.8c0.8,0,1.3-0.2,1.8-0.6
		s0.6-1,0.6-1.7v-0.7l-1.2,0.1c-1,0-1.7,0.2-2.1,0.4c-0.4,0.3-0.6,0.7-0.6,1.2c0,0.4,0.1,0.8,0.4,1C78.7,52.7,79.1,52.8,79.6,52.8z"
		/>
	<path id="XMLID_87_" class="st1" d="M95.3,52.5L95.3,52.5c-0.6,0.8-1.5,1.2-2.6,1.2c-1,0-1.9-0.4-2.4-1.1s-0.9-1.7-0.9-3
		s0.3-2.3,0.9-3.1s1.4-1.1,2.4-1.1c1.1,0,1.9,0.4,2.5,1.2h0.1l-0.1-0.6l0-0.6v-3.2h1.2v11.3h-1L95.3,52.5z M92.9,52.7
		c0.8,0,1.4-0.2,1.8-0.7c0.4-0.4,0.6-1.2,0.6-2.2v-0.3c0-1.1-0.2-1.9-0.6-2.4c-0.4-0.5-1-0.7-1.8-0.7c-0.7,0-1.2,0.3-1.6,0.8
		s-0.6,1.3-0.6,2.3c0,1,0.2,1.8,0.6,2.3C91.6,52.5,92.1,52.7,92.9,52.7z"/>
	<path id="XMLID_90_" class="st1" d="M102.5,53.8c-1.2,0-2.1-0.4-2.8-1.1c-0.7-0.7-1-1.7-1-3c0-1.3,0.3-2.3,0.9-3.1s1.5-1.1,2.6-1.1
		c1,0,1.8,0.3,2.4,1s0.9,1.5,0.9,2.6v0.8h-5.5c0,0.9,0.3,1.6,0.7,2.1c0.4,0.5,1.1,0.7,1.9,0.7c0.9,0,1.7-0.2,2.5-0.5v1.1
		c-0.4,0.2-0.8,0.3-1.2,0.4S103,53.8,102.5,53.8z M102.2,46.5c-0.6,0-1.2,0.2-1.5,0.6s-0.6,1-0.7,1.7h4.2c0-0.8-0.2-1.3-0.5-1.8
		C103.3,46.7,102.8,46.5,102.2,46.5z"/>
	<path id="XMLID_93_" class="st1" d="M118.6,46.1c0,1.1-0.4,1.9-1.1,2.5c-0.7,0.6-1.8,0.9-3.2,0.9h-1.3v4.2h-1.2V43h2.8
		C117.2,43,118.6,44,118.6,46.1z M113.1,48.4h1.1c1.1,0,1.9-0.2,2.4-0.5c0.5-0.4,0.7-0.9,0.7-1.7c0-0.7-0.2-1.2-0.7-1.6
		c-0.5-0.3-1.2-0.5-2.2-0.5h-1.4V48.4z"/>
	<path id="XMLID_96_" class="st1" d="M125.7,53.6l-0.2-1.1h-0.1c-0.4,0.5-0.8,0.8-1.2,1s-0.9,0.3-1.5,0.3c-0.8,0-1.4-0.2-1.9-0.6
		s-0.7-1-0.7-1.7c0-1.6,1.3-2.5,3.9-2.5l1.4,0v-0.5c0-0.6-0.1-1.1-0.4-1.4c-0.3-0.3-0.7-0.4-1.3-0.4c-0.7,0-1.4,0.2-2.3,0.6
		l-0.4-0.9c0.4-0.2,0.8-0.4,1.3-0.5s0.9-0.2,1.4-0.2c1,0,1.7,0.2,2.1,0.6s0.7,1.1,0.7,2v5.4H125.7z M122.9,52.8
		c0.8,0,1.3-0.2,1.8-0.6s0.6-1,0.6-1.7v-0.7l-1.2,0.1c-1,0-1.7,0.2-2.1,0.4c-0.4,0.3-0.6,0.7-0.6,1.2c0,0.4,0.1,0.8,0.4,1
		C122.1,52.7,122.5,52.8,122.9,52.8z"/>
	<path id="XMLID_99_" class="st1" d="M132.9,53.8c-0.5,0-1-0.1-1.4-0.3c-0.4-0.2-0.8-0.5-1.1-0.9h-0.1c0.1,0.5,0.1,0.9,0.1,1.3v3.3
		h-1.2V45.6h1l0.2,1.1h0.1c0.3-0.4,0.7-0.8,1.1-0.9c0.4-0.2,0.9-0.3,1.4-0.3c1.1,0,1.9,0.4,2.4,1.1c0.6,0.7,0.9,1.7,0.9,3
		c0,1.3-0.3,2.3-0.9,3.1C134.8,53.4,134,53.8,132.9,53.8z M132.7,46.5c-0.8,0-1.4,0.2-1.8,0.7s-0.6,1.2-0.6,2.2v0.3
		c0,1.1,0.2,1.9,0.6,2.4s1,0.7,1.8,0.7c0.7,0,1.2-0.3,1.6-0.8c0.4-0.6,0.6-1.3,0.6-2.3c0-1-0.2-1.8-0.6-2.3
		C134,46.8,133.4,46.5,132.7,46.5z"/>
	<path id="XMLID_102_" class="st1" d="M141.9,53.8c-1.2,0-2.1-0.4-2.8-1.1c-0.7-0.7-1-1.7-1-3c0-1.3,0.3-2.3,0.9-3.1
		s1.5-1.1,2.6-1.1c1,0,1.8,0.3,2.4,1s0.9,1.5,0.9,2.6v0.8h-5.5c0,0.9,0.3,1.6,0.7,2.1c0.4,0.5,1.1,0.7,1.9,0.7
		c0.9,0,1.7-0.2,2.5-0.5v1.1c-0.4,0.2-0.8,0.3-1.2,0.4S142.4,53.8,141.9,53.8z M141.5,46.5c-0.6,0-1.2,0.2-1.5,0.6s-0.6,1-0.7,1.7
		h4.2c0-0.8-0.2-1.3-0.5-1.8C142.6,46.7,142.2,46.5,141.5,46.5z"/>
	<path id="XMLID_105_" class="st1" d="M148.2,53.6H147V42.3h1.2V53.6z"/>
	<path id="XMLID_107_" class="st1" d="M158.3,53.8c-1.2,0-2.1-0.4-2.8-1.1c-0.7-0.7-1-1.7-1-3c0-1.3,0.3-2.3,0.9-3.1
		s1.5-1.1,2.5-1.1c1,0,1.8,0.3,2.4,1s0.9,1.5,0.9,2.6v0.8h-5.5c0,0.9,0.3,1.6,0.7,2.1c0.4,0.5,1.1,0.7,1.9,0.7
		c0.9,0,1.7-0.2,2.5-0.5v1.1c-0.4,0.2-0.8,0.3-1.2,0.4S158.8,53.8,158.3,53.8z M158,46.5c-0.6,0-1.2,0.2-1.5,0.6s-0.6,1-0.7,1.7h4.2
		c0-0.8-0.2-1.3-0.5-1.8C159.1,46.7,158.6,46.5,158,46.5z"/>
	<path id="XMLID_110_" class="st1" d="M172.2,43.9c-1.2,0-2.1,0.4-2.8,1.2c-0.7,0.8-1,1.8-1,3.2c0,1.4,0.3,2.5,1,3.2
		s1.6,1.1,2.8,1.1c0.7,0,1.6-0.1,2.5-0.4v1.1c-0.7,0.3-1.6,0.4-2.7,0.4c-1.6,0-2.8-0.5-3.6-1.4c-0.9-1-1.3-2.3-1.3-4.1
		c0-1.1,0.2-2.1,0.6-2.9c0.4-0.8,1-1.5,1.8-1.9c0.8-0.4,1.7-0.7,2.7-0.7c1.1,0,2.1,0.2,2.9,0.6l-0.5,1.1
		C173.8,44.1,173,43.9,172.2,43.9z"/>
	<path id="XMLID_112_" class="st1" d="M180.4,53.8c-1.2,0-2.1-0.4-2.8-1.1c-0.7-0.7-1-1.7-1-3c0-1.3,0.3-2.3,0.9-3.1
		s1.5-1.1,2.5-1.1c1,0,1.8,0.3,2.4,1s0.9,1.5,0.9,2.6v0.8h-5.5c0,0.9,0.3,1.6,0.7,2.1c0.4,0.5,1.1,0.7,1.9,0.7
		c0.9,0,1.7-0.2,2.5-0.5v1.1c-0.4,0.2-0.8,0.3-1.2,0.4S180.9,53.8,180.4,53.8z M180,46.5c-0.6,0-1.2,0.2-1.5,0.6s-0.6,1-0.7,1.7h4.2
		c0-0.8-0.2-1.3-0.5-1.8C181.2,46.7,180.7,46.5,180,46.5z"/>
	<path id="XMLID_115_" class="st1" d="M186.7,53.6h-1.2V42.3h1.2V53.6z"/>
	<path id="XMLID_117_" class="st1" d="M190.6,45.6v5.2c0,0.6,0.1,1.1,0.4,1.5s0.8,0.5,1.4,0.5c0.8,0,1.4-0.2,1.8-0.7
		c0.4-0.5,0.6-1.2,0.6-2.2v-4.2h1.2v8h-1l-0.2-1.1h-0.1c-0.2,0.4-0.6,0.7-1,0.9c-0.4,0.2-0.9,0.3-1.5,0.3c-1,0-1.7-0.2-2.2-0.7
		s-0.7-1.2-0.7-2.2v-5.2H190.6z"/>
	<path id="XMLID_119_" class="st1" d="M199.9,53.6h-1.2V42.3h1.2V53.6z"/>
	<path id="XMLID_121_" class="st1" d="M209.5,49.6c0,1.3-0.3,2.3-1,3c-0.7,0.7-1.6,1.1-2.7,1.1c-0.7,0-1.3-0.2-1.9-0.5
		s-1-0.8-1.3-1.4s-0.5-1.4-0.5-2.2c0-1.3,0.3-2.3,1-3c0.7-0.7,1.6-1.1,2.7-1.1c1.1,0,2,0.4,2.7,1.1
		C209.2,47.4,209.5,48.4,209.5,49.6z M203.5,49.6c0,1,0.2,1.8,0.6,2.3s1,0.8,1.8,0.8c0.8,0,1.4-0.3,1.8-0.8s0.6-1.3,0.6-2.3
		c0-1-0.2-1.8-0.6-2.3c-0.4-0.5-1-0.8-1.8-0.8c-0.8,0-1.4,0.3-1.8,0.8C203.7,47.8,203.5,48.6,203.5,49.6z"/>
	<path id="XMLID_124_" class="st1" d="M216.9,51.4c0,0.7-0.3,1.3-0.8,1.7c-0.6,0.4-1.3,0.6-2.3,0.6c-1.1,0-1.9-0.2-2.5-0.5v-1.1
		c0.4,0.2,0.8,0.3,1.2,0.5c0.4,0.1,0.9,0.2,1.3,0.2c0.6,0,1.1-0.1,1.5-0.3s0.5-0.5,0.5-0.9c0-0.3-0.1-0.6-0.4-0.8s-0.8-0.5-1.6-0.8
		c-0.7-0.3-1.3-0.5-1.6-0.7c-0.3-0.2-0.5-0.4-0.7-0.7c-0.2-0.3-0.2-0.6-0.2-0.9c0-0.7,0.3-1.2,0.8-1.5c0.5-0.4,1.3-0.6,2.2-0.6
		c0.9,0,1.7,0.2,2.5,0.5l-0.4,1c-0.8-0.3-1.5-0.5-2.2-0.5c-0.6,0-1,0.1-1.3,0.3s-0.4,0.4-0.4,0.7c0,0.2,0.1,0.4,0.2,0.5
		c0.1,0.2,0.3,0.3,0.5,0.4c0.2,0.1,0.7,0.3,1.4,0.6c0.9,0.3,1.6,0.7,1.9,1S216.9,50.9,216.9,51.4z"/>
	<path id="XMLID_126_" class="st1" d="M222.4,53.8c-1.2,0-2.1-0.4-2.8-1.1c-0.7-0.7-1-1.7-1-3c0-1.3,0.3-2.3,0.9-3.1
		s1.5-1.1,2.5-1.1c1,0,1.8,0.3,2.4,1s0.9,1.5,0.9,2.6v0.8h-5.5c0,0.9,0.3,1.6,0.7,2.1c0.4,0.5,1.1,0.7,1.9,0.7
		c0.9,0,1.7-0.2,2.5-0.5v1.1c-0.4,0.2-0.8,0.3-1.2,0.4S223,53.8,222.4,53.8z M222.1,46.5c-0.6,0-1.2,0.2-1.5,0.6s-0.6,1-0.7,1.7h4.2
		c0-0.8-0.2-1.3-0.5-1.8C223.2,46.7,222.7,46.5,222.1,46.5z"/>
</g>
<g id="XMLID_30_">
	<defs>
		<rect id="XMLID_31_" x="244.7" y="6.2" width="49.9" height="49.9"/>
	</defs>
	<clipPath id="XMLID_129_">
		<use xlink:href="#XMLID_31_"  style="overflow:visible;"/>
	</clipPath>
	<linearGradient id="XMLID_130_" gradientUnits="userSpaceOnUse" x1="269.6908" y1="56.7864" x2="269.6908" y2="6.8478">
		<stop  offset="0" style="stop-color:#324A8A"/>
		<stop  offset="2.333015e-02" style="stop-color:#324A8B"/>
		<stop  offset="0.6243" style="stop-color:#2754A2"/>
		<stop  offset="1" style="stop-color:#2357AB"/>
	</linearGradient>
	<rect id="XMLID_39_" x="244.7" y="6.2" class="st2" width="49.9" height="49.9"/>
	<g id="XMLID_32_" class="st3">
		<path id="XMLID_38_" class="st4" d="M267.5,51.7c-2.4-3.1-4.8-5.9-7.1-8c-1.1-1.1-2.2-2-3.3-2.8c-1-0.8-1.9-1.4-2.7-1.8
			c-0.8-0.5-1.5-0.8-1.9-1c-0.5-0.2-0.7-0.3-0.7-0.3s0.2,0.1,0.7,0.2c0.5,0.2,1.1,0.4,2,0.9c0.8,0.4,1.8,1,2.9,1.7
			c1.1,0.7,2.2,1.6,3.4,2.6c2.4,2.1,5.1,4.7,7.6,7.7c1.3,1.5,2.6,3.1,3.8,4.8C271.8,33,253.2,15,230.3,15h0
			c0.1,22,18.1,41.1,40.7,41.7C269.9,55,268.7,53.3,267.5,51.7z"/>
		<linearGradient id="XMLID_131_" gradientUnits="userSpaceOnUse" x1="251.4617" y1="35.9099" x2="280.0762" y2="66.2602">
			<stop  offset="0" style="stop-color:#FFFFFF;stop-opacity:0"/>
			<stop  offset="8.863629e-02" style="stop-color:#F3F3F3;stop-opacity:8.863629e-02"/>
			<stop  offset="0.251" style="stop-color:#D1D1D1;stop-opacity:0.251"/>
			<stop  offset="0.4689" style="stop-color:#9C9C9C;stop-opacity:0.4689"/>
			<stop  offset="0.7343" style="stop-color:#515151;stop-opacity:0.7343"/>
			<stop  offset="1" style="stop-color:#000000"/>
		</linearGradient>
		<path id="XMLID_37_" class="st5" d="M267.5,51.7c-2.4-3.1-4.8-5.9-7.1-8c-1.1-1.1-2.2-2-3.3-2.8c-1-0.8-1.9-1.4-2.7-1.8
			c-0.8-0.5-1.5-0.8-1.9-1c-0.5-0.2-0.7-0.3-0.7-0.3s0.2,0.1,0.7,0.2c0.5,0.2,1.1,0.4,2,0.9c0.8,0.4,1.8,1,2.9,1.7
			c1.1,0.7,2.2,1.6,3.4,2.6c2.4,2.1,5.1,4.7,7.6,7.7c1.3,1.5,2.6,3.1,3.8,4.8C271.8,33,253.2,15,230.3,15h0
			c0.1,22,18.1,41.1,40.7,41.7C269.9,55,268.7,53.3,267.5,51.7z"/>
		<path id="XMLID_36_" class="st6" d="M277.6,53.7c1.4-1.9,2.9-3.5,4.3-4.8c0.7-0.6,1.3-1.2,2-1.7c0.6-0.5,1.2-0.8,1.6-1.1
			c0.5-0.3,0.9-0.5,1.1-0.6c0.3-0.1,0.4-0.2,0.4-0.2s-0.1,0.1-0.4,0.1c-0.3,0.1-0.7,0.3-1.2,0.5c-0.5,0.3-1.1,0.6-1.7,1
			c-0.6,0.4-1.3,1-2.1,1.6c-1.5,1.2-3,2.8-4.6,4.6c-0.8,0.9-1.5,1.6-2.3,2.6c0.3-13.7,11.5-24.8,25.3-24.8h0c0,14-10.9,25-24.5,25.4
			C276.2,55.3,276.9,54.6,277.6,53.7z"/>
		<linearGradient id="XMLID_132_" gradientUnits="userSpaceOnUse" x1="289.044" y1="42.375" x2="269.6365" y2="58.7188">
			<stop  offset="0" style="stop-color:#FFFFFF;stop-opacity:0"/>
			<stop  offset="8.863629e-02" style="stop-color:#F3F3F3;stop-opacity:8.863629e-02"/>
			<stop  offset="0.251" style="stop-color:#D1D1D1;stop-opacity:0.251"/>
			<stop  offset="0.4689" style="stop-color:#9C9C9C;stop-opacity:0.4689"/>
			<stop  offset="0.7343" style="stop-color:#515151;stop-opacity:0.7343"/>
			<stop  offset="1" style="stop-color:#000000"/>
		</linearGradient>
		<path id="XMLID_35_" class="st7" d="M277.6,53.7c1.4-1.9,2.9-3.5,4.3-4.8c0.7-0.6,1.3-1.2,2-1.7c0.6-0.5,1.2-0.8,1.6-1.1
			c0.5-0.3,0.9-0.5,1.1-0.6c0.3-0.1,0.4-0.2,0.4-0.2s-0.1,0.1-0.4,0.1c-0.3,0.1-0.7,0.3-1.2,0.5c-0.5,0.3-1.1,0.6-1.7,1
			c-0.6,0.4-1.3,1-2.1,1.6c-1.5,1.2-3,2.8-4.6,4.6c-0.8,0.9-1.5,1.6-2.3,2.6c0.3-13.7,11.5-24.8,25.3-24.8h0c0,14-10.9,25-24.5,25.4
			C276.2,55.3,276.9,54.6,277.6,53.7z"/>
		<path id="XMLID_34_" class="st8" d="M274.7,36.8c-0.4-2.8-0.5-5.4-0.5-7.6c0-1.1,0.1-2.1,0.2-3c0.1-0.9,0.3-1.7,0.5-2.3
			c0.2-0.6,0.3-1.1,0.5-1.4c0.1-0.3,0.2-0.5,0.2-0.5s-0.1,0.2-0.2,0.5c-0.1,0.3-0.4,0.8-0.5,1.4c-0.2,0.6-0.4,1.4-0.6,2.3
			c-0.2,0.9-0.3,1.9-0.4,3c-0.2,2.2-0.2,4.9,0,7.7c0.1,1.4,0.2,2.8,0.5,4.3c-11.2-11.7-10.9-30.1,0.6-41.6l0,0
			c11.3,11.3,11.6,29.8,0.5,41.4C275.1,39.5,274.9,38.1,274.7,36.8z"/>
		<linearGradient id="XMLID_133_" gradientUnits="userSpaceOnUse" x1="274.7752" y1="26.1113" x2="274.7752" y2="43.5344">
			<stop  offset="0" style="stop-color:#FFFFFF;stop-opacity:0"/>
			<stop  offset="8.863629e-02" style="stop-color:#F3F3F3;stop-opacity:8.863629e-02"/>
			<stop  offset="0.251" style="stop-color:#D1D1D1;stop-opacity:0.251"/>
			<stop  offset="0.4689" style="stop-color:#9C9C9C;stop-opacity:0.4689"/>
			<stop  offset="0.7343" style="stop-color:#515151;stop-opacity:0.7343"/>
			<stop  offset="1" style="stop-color:#000000"/>
		</linearGradient>
		<path id="XMLID_33_" class="st9" d="M274.7,36.8c-0.4-2.8-0.5-5.4-0.5-7.6c0-1.1,0.1-2.1,0.2-3c0.1-0.9,0.3-1.7,0.5-2.3
			c0.2-0.6,0.3-1.1,0.5-1.4c0.1-0.3,0.2-0.5,0.2-0.5s-0.1,0.2-0.2,0.5c-0.1,0.3-0.4,0.8-0.5,1.4c-0.2,0.6-0.4,1.4-0.6,2.3
			c-0.2,0.9-0.3,1.9-0.4,3c-0.2,2.2-0.2,4.9,0,7.7c0.1,1.4,0.2,2.8,0.5,4.3c-11.2-11.7-10.9-30.1,0.6-41.6l0,0
			c11.3,11.3,11.6,29.8,0.5,41.4C275.1,39.5,274.9,38.1,274.7,36.8z"/>
	</g>
</g>
</svg>
