<?xml version="1.0" encoding="UTF-8" standalone="no"?>
<!-- Generator: Adobe Illustrator 19.0.0, SVG Export Plug-In . SVG Version: 6.00 Build 0)  -->

<svg
   xmlns:dc="http://purl.org/dc/elements/1.1/"
   xmlns:cc="http://creativecommons.org/ns#"
   xmlns:rdf="http://www.w3.org/1999/02/22-rdf-syntax-ns#"
   xmlns:svg="http://www.w3.org/2000/svg"
   xmlns="http://www.w3.org/2000/svg"
   xmlns:sodipodi="http://sodipodi.sourceforge.net/DTD/sodipodi-0.dtd"
   xmlns:inkscape="http://www.inkscape.org/namespaces/inkscape"
   version="1.1"
   id="Layer_1"
   x="0px"
   y="0px"
   viewBox="0 0 100 100"
   style="enable-background:new 0 0 100 100;"
   xml:space="preserve"
   inkscape:version="0.91 r13725"
   sodipodi:docname="threetorah.svg"><metadata
     id="metadata19"><rdf:RDF><cc:Work
         rdf:about=""><dc:format>image/svg+xml</dc:format><dc:type
           rdf:resource="http://purl.org/dc/dcmitype/StillImage" /><dc:title></dc:title></cc:Work></rdf:RDF></metadata><defs
     id="defs17" /><sodipodi:namedview
     pagecolor="#ffffff"
     bordercolor="#666666"
     borderopacity="1"
     objecttolerance="10"
     gridtolerance="10"
     guidetolerance="10"
     inkscape:pageopacity="0"
     inkscape:pageshadow="2"
     inkscape:window-width="1373"
     inkscape:window-height="637"
     id="namedview15"
     showgrid="false"
     inkscape:zoom="1.668772"
     inkscape:cx="-9.6141414"
     inkscape:cy="106.94925"
     inkscape:window-x="1720"
     inkscape:window-y="100"
     inkscape:window-maximized="0"
     inkscape:current-layer="Layer_1" /><style
     type="text/css"
     id="style3">
	.st0{fill:#352C43;}
	.st1{fill:#3DB5C2;}
	.st2{fill:#E9FEA9;}
	.st3{fill:#62CEC0;}
	.st4{fill:#FFFFFF;}
</style><path
     id="XMLID_49_"
     class="st0"
     d="m 42.059444,79.190961 c 2.350283,-2.62147 5.694916,-4.338984 9.491526,-4.338984 3.79661,0 7.231638,1.80791 9.491525,4.338984 l 3.525424,0 c -2.711864,-4.248589 -7.59322,-7.231639 -13.107344,-7.231639 -5.514125,0 -10.305086,2.98305 -13.107345,7.231639 l 3.706214,0 z"
     inkscape:connector-curvature="0"
     style="fill:#352c43" /><path
     id="XMLID_48_"
     class="st0"
     d="m 79.935151,33.179661 c 0,15.909604 -12.836159,28.564971 -28.564972,28.564971 -15.728815,0 -28.474577,-12.655367 -28.474577,-28.564971 l -3.887006,0 c 0,17.807909 14.553673,32.451977 32.451978,32.451977 17.898305,0 32.451978,-14.553673 32.451978,-32.451977 l -3.977401,0 z"
     inkscape:connector-curvature="0"
     style="fill:#352c43" /><path
     id="XMLID_47_"
     class="st0"
     d="m 65.291083,33.179661 c 0,0 0,0.0904 0,0.0904 0,7.683616 -6.237288,13.830508 -13.920903,13.830508 -7.683617,0 -13.83051,-6.146892 -13.83051,-13.830508 0,0 0,-0.0904 0,-0.0904 l -3.887005,0 c 0,0 0,0.0904 0,0.0904 0,9.853107 7.954803,17.717514 17.80791,17.717514 9.853107,0 17.807909,-7.954803 17.807909,-17.717514 0,0 0,-0.0904 0,-0.0904 l -3.977401,0 z"
     inkscape:connector-curvature="0"
     style="fill:#352c43" /><path
     id="XMLID_46_"
     class="st0"
     d="m 72.703512,32.908475 c 0,0.361581 0,0.271186 0,0.361581 0,11.661017 -9.581922,21.242938 -21.242938,21.242938 -11.661018,0 -21.152543,-9.581921 -21.152543,-21.242938 0,-0.0904 0,0 0,-0.361581 l -3.887005,0 c 0,0.361581 0,0.271186 0,0.361581 0,13.830508 11.209038,25.129943 25.039548,25.129943 13.830508,0 25.039548,-11.299435 25.039548,-25.129943 0,-0.0904 0,0 0,-0.361581 l -3.79661,0 z"
     inkscape:connector-curvature="0"
     style="fill:#352c43" /><path
     id="XMLID_8_"
     class="st1"
     d="m 22.985999,34.174011 c 0,-15.909605 12.836157,-28.474576 28.474576,-28.474576 15.638418,0 28.474577,12.655367 28.474577,28.474576 l 3.887004,0 c 0,-17.807909 -14.553671,-32.4519777 -32.451976,-32.4519777 -17.898306,0 -32.271187,14.6440687 -32.271187,32.4519777 l 3.887006,0 z"
     inkscape:connector-curvature="0"
     style="fill:#3db5c2" /><path
     id="XMLID_7_"
     class="st2"
     d="m 37.584867,34.174011 c 0,0 0,-0.0904 0,-0.0904 0,-7.683616 6.237288,-13.830509 13.920905,-13.830509 7.683615,0 13.830508,6.146893 13.830508,13.830509 0,0 0,0.0904 0,0.0904 l 3.887006,0 c 0,0 0,-0.0904 0,-0.0904 0,-9.853108 -7.954803,-17.717514 -17.80791,-17.717514 -9.853108,0 -17.717514,7.954802 -17.717514,17.717514 0,0 0,0.0904 0,0.0904 l 3.887005,0 z"
     inkscape:connector-curvature="0"
     style="fill:#e9fea9" /><path
     id="XMLID_6_"
     class="st3"
     d="m 30.308031,34.535592 c 0,-0.361581 0,-0.271186 0,-0.361581 0,-11.751413 9.491525,-21.242938 21.152543,-21.242938 11.661016,0 21.152542,9.491525 21.152542,21.242938 0,0.0904 0,0 0,0.361581 l 3.887006,0 c 0,-0.361581 0,-0.271186 0,-0.361581 0,-13.830508 -11.20904,-25.129944 -25.039548,-25.129944 -13.83051,0 -25.039548,11.299436 -25.039548,25.129944 0,0.0904 0,0 0,0.361581 l 3.887005,0 z"
     inkscape:connector-curvature="0"
     style="fill:#62cec0" /><rect
     id="XMLID_45_"
     x="51.878654"
     y="33.270061"
     class="st4"
     width="3.1638417"
     height="42.395481"
     style="fill:#ffffff" /><rect
     id="XMLID_44_"
     x="49.878654"
     y="33.270061"
     class="st0"
     width="3.1638417"
     height="41.581921"
     style="fill:#352c43" /><rect
     id="XMLID_1_"
     x="17.562271"
     y="33.179665"
     class="st4"
     width="67.796608"
     height="2.8926556"
     style="fill:#ffffff" /><text
     xml:space="preserve"
     style="font-style:normal;font-variant:normal;font-weight:normal;font-stretch:normal;font-size:13.06268597px;line-height:125%;font-family:Bitter;-inkscape-font-specification:'Bitter, Normal';text-align:start;letter-spacing:0px;word-spacing:0px;writing-mode:lr-tb;text-anchor:start;fill:#000000;fill-opacity:1;stroke:none;stroke-width:1px;stroke-linecap:butt;stroke-linejoin:miter;stroke-opacity:1"
     x="7.6714907"
     y="94.514748"
     id="text4147"
     sodipodi:linespacing="125%"><tspan
       sodipodi:role="line"
       id="tspan4149"
       x="7.6714907"
       y="94.514748">THREETORAH</tspan></text>
</svg>